<svg height="1998" width="720" xmlns="http://www.w3.org/2000/svg">
<rect height="1998" fill="#555" width="720"></rect>
<text fill="#7f7" font-family="Courier New" font-size="12" xml:space="preserve">
<tspan x="10" y="26">15 megabytes installed</tspan>
<tspan x="10" y="42"></tspan>
<tspan x="10" y="58">node_modules</tspan>
<tspan x="10" y="74">└─┬ conventional-changelog@1.1.3 </tspan>
<tspan x="10" y="90">  ├─┬ conventional-changelog-angular@1.3.3 </tspan>
<tspan x="10" y="106">  │ ├─┬ compare-func@1.3.2 </tspan>
<tspan x="10" y="122">  │ │ ├── array-ify@1.0.0 </tspan>
<tspan x="10" y="138">  │ │ └─┬ dot-prop@3.0.0 </tspan>
<tspan x="10" y="154">  │ │   └── is-obj@1.0.1 </tspan>
<tspan x="10" y="170">  │ ├── github-url-from-git@1.5.0 </tspan>
<tspan x="10" y="186">  │ └── q@1.5.0 </tspan>
<tspan x="10" y="202">  ├── conventional-changelog-atom@0.1.0 </tspan>
<tspan x="10" y="218">  ├── conventional-changelog-codemirror@0.1.0 </tspan>
<tspan x="10" y="234">  ├─┬ conventional-changelog-core@1.8.0 </tspan>
<tspan x="10" y="250">  │ ├─┬ conventional-changelog-writer@1.4.1 </tspan>
<tspan x="10" y="266">  │ │ ├─┬ conventional-commits-filter@1.0.0 </tspan>
<tspan x="10" y="282">  │ │ │ ├── is-subset@0.1.1 </tspan>
<tspan x="10" y="298">  │ │ │ └── modify-values@1.0.0 </tspan>
<tspan x="10" y="314">  │ │ ├─┬ handlebars@4.0.6 </tspan>
<tspan x="10" y="330">  │ │ │ ├── async@1.5.2 </tspan>
<tspan x="10" y="346">  │ │ │ ├─┬ optimist@0.6.1 </tspan>
<tspan x="10" y="362">  │ │ │ │ ├── minimist@0.0.10 </tspan>
<tspan x="10" y="378">  │ │ │ │ └── wordwrap@0.0.3 </tspan>
<tspan x="10" y="394">  │ │ │ ├─┬ source-map@0.4.4 </tspan>
<tspan x="10" y="410">  │ │ │ │ └── amdefine@1.0.1 </tspan>
<tspan x="10" y="426">  │ │ │ └─┬ uglify-js@2.8.22 </tspan>
<tspan x="10" y="442">  │ │ │   ├── source-map@0.5.6 </tspan>
<tspan x="10" y="458">  │ │ │   ├── uglify-to-browserify@1.0.2 </tspan>
<tspan x="10" y="474">  │ │ │   └─┬ yargs@3.10.0 </tspan>
<tspan x="10" y="490">  │ │ │     ├── camelcase@1.2.1 </tspan>
<tspan x="10" y="506">  │ │ │     ├─┬ cliui@2.1.0 </tspan>
<tspan x="10" y="522">  │ │ │     │ ├─┬ center-align@0.1.3 </tspan>
<tspan x="10" y="538">  │ │ │     │ │ ├─┬ align-text@0.1.4 </tspan>
<tspan x="10" y="554">  │ │ │     │ │ │ ├─┬ kind-of@3.2.0 </tspan>
<tspan x="10" y="570">  │ │ │     │ │ │ │ └── is-buffer@1.1.5 </tspan>
<tspan x="10" y="586">  │ │ │     │ │ │ ├── longest@1.0.1 </tspan>
<tspan x="10" y="602">  │ │ │     │ │ │ └── repeat-string@1.6.1 </tspan>
<tspan x="10" y="618">  │ │ │     │ │ └── lazy-cache@1.0.4 </tspan>
<tspan x="10" y="634">  │ │ │     │ ├── right-align@0.1.3 </tspan>
<tspan x="10" y="650">  │ │ │     │ └── wordwrap@0.0.2 </tspan>
<tspan x="10" y="666">  │ │ │     └── window-size@0.1.0 </tspan>
<tspan x="10" y="682">  │ │ ├── json-stringify-safe@5.0.1 </tspan>
<tspan x="10" y="698">  │ │ ├─┬ meow@3.7.0 </tspan>
<tspan x="10" y="714">  │ │ │ ├─┬ camelcase-keys@2.1.0 </tspan>
<tspan x="10" y="730">  │ │ │ │ └── camelcase@2.1.1 </tspan>
<tspan x="10" y="746">  │ │ │ ├── decamelize@1.2.0 </tspan>
<tspan x="10" y="762">  │ │ │ ├─┬ loud-rejection@1.6.0 </tspan>
<tspan x="10" y="778">  │ │ │ │ ├─┬ currently-unhandled@0.4.1 </tspan>
<tspan x="10" y="794">  │ │ │ │ │ └── array-find-index@1.0.2 </tspan>
<tspan x="10" y="810">  │ │ │ │ └── signal-exit@3.0.2 </tspan>
<tspan x="10" y="826">  │ │ │ ├── map-obj@1.0.1 </tspan>
<tspan x="10" y="842">  │ │ │ ├── minimist@1.2.0 </tspan>
<tspan x="10" y="858">  │ │ │ ├── object-assign@4.1.1 </tspan>
<tspan x="10" y="874">  │ │ │ ├─┬ redent@1.0.0 </tspan>
<tspan x="10" y="890">  │ │ │ │ ├─┬ indent-string@2.1.0 </tspan>
<tspan x="10" y="906">  │ │ │ │ │ └─┬ repeating@2.0.1 </tspan>
<tspan x="10" y="922">  │ │ │ │ │   └── is-finite@1.0.2 </tspan>
<tspan x="10" y="938">  │ │ │ │ └── strip-indent@1.0.1 </tspan>
<tspan x="10" y="954">  │ │ │ └── trim-newlines@1.0.0 </tspan>
<tspan x="10" y="970">  │ │ ├── semver@5.3.0 </tspan>
<tspan x="10" y="986">  │ │ └─┬ split@1.0.0 </tspan>
<tspan x="10" y="1002">  │ │   └── through@2.3.8 </tspan>
<tspan x="10" y="1018">  │ ├─┬ conventional-commits-parser@1.3.0 </tspan>
<tspan x="10" y="1034">  │ │ ├─┬ is-text-path@1.0.1 </tspan>
<tspan x="10" y="1050">  │ │ │ └── text-extensions@1.4.0 </tspan>
<tspan x="10" y="1066">  │ │ ├─┬ JSONStream@1.3.1 </tspan>
<tspan x="10" y="1082">  │ │ │ └── jsonparse@1.3.0 </tspan>
<tspan x="10" y="1098">  │ │ ├── split2@2.1.1 </tspan>
<tspan x="10" y="1114">  │ │ └── trim-off-newlines@1.0.1 </tspan>
<tspan x="10" y="1130">  │ ├─┬ dateformat@1.0.12 </tspan>
<tspan x="10" y="1146">  │ │ └── get-stdin@4.0.1 </tspan>
<tspan x="10" y="1162">  │ ├─┬ get-pkg-repo@1.3.0 </tspan>
<tspan x="10" y="1178">  │ │ ├── hosted-git-info@2.4.2 </tspan>
<tspan x="10" y="1194">  │ │ └── parse-github-repo-url@1.4.0 </tspan>
<tspan x="10" y="1210">  │ ├─┬ git-raw-commits@1.2.0 </tspan>
<tspan x="10" y="1226">  │ │ ├─┬ dargs@4.1.0 </tspan>
<tspan x="10" y="1242">  │ │ │ └── number-is-nan@1.0.1 </tspan>
<tspan x="10" y="1258">  │ │ └─┬ lodash.template@4.4.0 </tspan>
<tspan x="10" y="1274">  │ │   ├── lodash._reinterpolate@3.0.0 </tspan>
<tspan x="10" y="1290">  │ │   └── lodash.templatesettings@4.1.0 </tspan>
<tspan x="10" y="1306">  │ ├─┬ git-remote-origin-url@2.0.0 </tspan>
<tspan x="10" y="1322">  │ │ ├─┬ gitconfiglocal@1.0.0 </tspan>
<tspan x="10" y="1338">  │ │ │ └── ini@1.3.4 </tspan>
<tspan x="10" y="1354">  │ │ └── pify@2.3.0 </tspan>
<tspan x="10" y="1370">  │ ├── git-semver-tags@1.2.0 </tspan>
<tspan x="10" y="1386">  │ ├── lodash@4.17.4 </tspan>
<tspan x="10" y="1402">  │ ├─┬ normalize-package-data@2.3.8 </tspan>
<tspan x="10" y="1418">  │ │ ├─┬ is-builtin-module@1.0.0 </tspan>
<tspan x="10" y="1434">  │ │ │ └── builtin-modules@1.1.1 </tspan>
<tspan x="10" y="1450">  │ │ └─┬ validate-npm-package-license@3.0.1 </tspan>
<tspan x="10" y="1466">  │ │   ├─┬ spdx-correct@1.0.2 </tspan>
<tspan x="10" y="1482">  │ │   │ └── spdx-license-ids@1.2.2 </tspan>
<tspan x="10" y="1498">  │ │   └── spdx-expression-parse@1.0.4 </tspan>
<tspan x="10" y="1514">  │ ├─┬ read-pkg@1.1.0 </tspan>
<tspan x="10" y="1530">  │ │ ├─┬ load-json-file@1.1.0 </tspan>
<tspan x="10" y="1546">  │ │ │ ├── graceful-fs@4.1.11 </tspan>
<tspan x="10" y="1562">  │ │ │ ├─┬ parse-json@2.2.0 </tspan>
<tspan x="10" y="1578">  │ │ │ │ └─┬ error-ex@1.3.1 </tspan>
<tspan x="10" y="1594">  │ │ │ │   └── is-arrayish@0.2.1 </tspan>
<tspan x="10" y="1610">  │ │ │ ├─┬ pinkie-promise@2.0.1 </tspan>
<tspan x="10" y="1626">  │ │ │ │ └── pinkie@2.0.4 </tspan>
<tspan x="10" y="1642">  │ │ │ └─┬ strip-bom@2.0.0 </tspan>
<tspan x="10" y="1658">  │ │ │   └── is-utf8@0.2.1 </tspan>
<tspan x="10" y="1674">  │ │ └── path-type@1.1.0 </tspan>
<tspan x="10" y="1690">  │ ├─┬ read-pkg-up@1.0.1 </tspan>
<tspan x="10" y="1706">  │ │ └─┬ find-up@1.1.2 </tspan>
<tspan x="10" y="1722">  │ │   └── path-exists@2.1.0 </tspan>
<tspan x="10" y="1738">  │ └─┬ through2@2.0.3 </tspan>
<tspan x="10" y="1754">  │   ├─┬ readable-stream@2.2.9 </tspan>
<tspan x="10" y="1770">  │   │ ├── buffer-shims@1.0.0 </tspan>
<tspan x="10" y="1786">  │   │ ├── core-util-is@1.0.2 </tspan>
<tspan x="10" y="1802">  │   │ ├── inherits@2.0.3 </tspan>
<tspan x="10" y="1818">  │   │ ├── isarray@1.0.0 </tspan>
<tspan x="10" y="1834">  │   │ ├── process-nextick-args@1.0.7 </tspan>
<tspan x="10" y="1850">  │   │ ├── string_decoder@1.0.0 </tspan>
<tspan x="10" y="1866">  │   │ └── util-deprecate@1.0.2 </tspan>
<tspan x="10" y="1882">  │   └── xtend@4.0.1 </tspan>
<tspan x="10" y="1898">  ├── conventional-changelog-ember@0.2.5 </tspan>
<tspan x="10" y="1914">  ├── conventional-changelog-eslint@0.1.0 </tspan>
<tspan x="10" y="1930">  ├── conventional-changelog-express@0.1.0 </tspan>
<tspan x="10" y="1946">  ├── conventional-changelog-jquery@0.1.0 </tspan>
<tspan x="10" y="1962">  ├── conventional-changelog-jscs@0.1.0 </tspan>
<tspan x="10" y="1978">  └── conventional-changelog-jshint@0.1.0</tspan>
</text>
</svg>
